<?xml version="1.0" encoding="UTF-8"?>
<!-- Created with Inkscape (http://www.inkscape.org/) -->
<svg id="svg5453" width="48" height="48" version="1.1" xmlns="http://www.w3.org/2000/svg" xmlns:cc="http://creativecommons.org/ns#" xmlns:dc="http://purl.org/dc/elements/1.1/" xmlns:rdf="http://www.w3.org/1999/02/22-rdf-syntax-ns#" xmlns:xlink="http://www.w3.org/1999/xlink">
 <defs id="defs5455">
  <linearGradient id="linearGradient3825" x1="24" x2="24" y1="20" y2="44" gradientTransform="translate(384.57 499.8)" gradientUnits="userSpaceOnUse">
   <stop id="stop3821" style="stop-color:#eff0f1" offset="0"/>
   <stop id="stop3823" style="stop-color:#bdc3c7" offset="1"/>
  </linearGradient>
  <linearGradient id="linearGradient3843" x1="10" x2="15" y1="36" y2="41" gradientTransform="translate(384.57 500.8)" gradientUnits="userSpaceOnUse" xlink:href="#linearGradient4227"/>
  <linearGradient id="linearGradient3847" x1="9.9048" x2="14.905" y1="36" y2="41" gradientTransform="translate(398.67 500.8)" gradientUnits="userSpaceOnUse" xlink:href="#linearGradient4227"/>
  <linearGradient id="linearGradient3948" x1="25.065" x2="25" y1="33.844" y2="10" gradientTransform="matrix(1 0 0 1.0833 384.57 492.96)" gradientUnits="userSpaceOnUse">
   <stop id="stop5625" style="stop-color:#d35400" offset="0"/>
   <stop id="stop5627" style="stop-color:#d35400" offset="1"/>
  </linearGradient>
  <linearGradient id="linearGradient3080" x1="8.525" x2="25.2" y1="7.8001" y2="25.2" gradientTransform="matrix(1.3793 0 0 1.3793 384.81 499.04)" gradientUnits="userSpaceOnUse" xlink:href="#linearGradient4227"/>
  <linearGradient id="linearGradient4227">
   <stop id="stop4229" style="stop-color:#292c2f" offset="0"/>
   <stop id="stop4231" style="stop-opacity:0" offset="1"/>
  </linearGradient>
 </defs>
 <metadata id="metadata5458">
  <rdf:RDF>
   <cc:Work rdf:about="">
    <dc:format>image/svg+xml</dc:format>
    <dc:type rdf:resource="http://purl.org/dc/dcmitype/StillImage"/>
    <dc:title/>
   </cc:Work>
  </rdf:RDF>
 </metadata>
 <g id="layer1" transform="translate(-384.57 -499.8)">
  <rect id="rect3936" x="392.57" y="503.8" width="32" height="26" ry="0" style="fill:url(#linearGradient3948)"/>
  <path id="path3911" d="m408.57 533.8c-1.662 0-3 1.338-3 3s1.338 3 3 3c1.3054 0 2.3982-0.84052 2.8125-2h8.375c0.41433 1.1595 1.5071 2 2.8125 2 1.662 0 3-1.338 3-3s-1.338-3-3-3c-1.3054 0-2.3982 0.84052-2.8125 2h-8.375c-0.41433-1.1595-1.5071-2-2.8125-2z" style="fill:#232629;opacity:.2"/>
  <path id="rect3804" d="m388.57 529.8-1e-5 14h40l1e-5 -14z" style="fill:url(#linearGradient3825)"/>
  <path id="path3829" d="m411.38 537.8h8.375c0.41433 1.1595 1.5071 2 2.8125 2 1.662 0 3-1.338 3-3s-1.338-3-3-3c-1.3054 0-2.3982 0.84052-2.8125 2h-8.375c0.1875 1 0.1875 1 0 2z" style="fill:#4d4d4d;opacity:.77876"/>
  <path id="path3845" d="m406.67 539.13 4.7619 4.6667h8.1429l-9.1429-9.4286z" style="fill:url(#linearGradient3847);opacity:.2"/>
  <path id="path3835" d="m392.57 539.13 4.619 4.6667h13.381l-4.8667-6.9365-7.1333-0.0675-2.2381-2.4246z" style="fill:url(#linearGradient3843);opacity:.2"/>
  <path id="rect3812" d="m394.57 533.8c-1.662 0-3 1.338-3 3s1.338 3 3 3c1.3054 0 2.3982-0.84052 2.8125-2h8.375c0.41433 1.1595 1.5071 2 2.8125 2 1.662 0 3-1.338 3-3s-1.338-3-3-3c-1.3054 0-2.3982 0.84052-2.8125 2h-8.375c-0.41433-1.1595-1.5071-2-2.8125-2z" style="fill:#d35400"/>
  <rect id="rect3827" x="388.57" y="542.8" width="40" height=".99997" ry="0" style="fill:#95a5a6"/>
  <rect id="rect3855" x="388.57" y="529.8" width="40" height="1" ry="0" style="fill:#eff0f1"/>
  <path id="path4184" d="m409.57 513.8v1l-1 9 20 19-1e-5 -1 1e-5 -13-19-19z" style="fill-rule:evenodd;fill:url(#linearGradient3080);opacity:.2"/>
  <path id="path3938" d="m407.57 509.8v10l-4.5-4.5-1.5 1.5 7 7 7-7-1.5-1.5-4.5 4.5v-10h-2z" style="block-progression:tb;color-rendering:auto;color:#000000;fill:#fcfcfc;image-rendering:auto;isolation:auto;mix-blend-mode:normal;shape-rendering:auto;solid-color:#000000;text-decoration-color:#000000;text-decoration-line:none;text-decoration-style:solid;text-indent:0;text-transform:none;white-space:normal"/>
 </g>
</svg>
