<svg version="1.2" xmlns="http://www.w3.org/2000/svg" viewBox="0 0 252 144" width="1024" height="512">
	<title>New Project</title>
	<style>
		.s0 { fill: #000000 } 
	</style>
	<g id="Layer 1">
		<path id="PrivOS" class="s0" aria-label="PrivOS"  d="m34.9 63.8v-6.3c0-6.2-4.9-11.2-11.2-11.2h-19.5v44.7h10.9v-16.1h8.6c6.3 0 11.2-5 11.2-11.1zm-10.9-0.3c0 2.9-2 5.2-4.5 5.2h-4.4v-16.1h4.4c2.5 0 4.5 2.2 4.5 5.1zm43 8v-8.4c0-3.1-2.5-5.6-5.6-5.6h-21.6v33.5h10.1v-27.2h7v7.7zm15-22.4v-9.1h-10.1v9.1zm0 41.9v-33.5h-10.1v33.5zm37-11.2v-22.3h-10.2v22.3c0 2.8-1.8 4.9-4.1 4.9h-5.6v-27.2h-10.2v33.5h18.9c6.2 0 11.2-5 11.2-11.2zm40.5 0v-22.3c0-6.1-5-11.2-11.2-11.2h-11.9c-6.1 0-11.2 5.1-11.2 11.2v22.3c0 6.2 5.1 11.2 11.2 11.2h11.9c6.2 0 11.2-5 11.2-11.2zm-10.9-0.2c0 3-2.1 5.1-4.5 5.1h-3.5c-2.4 0-4.4-2.1-4.4-5.1v-21.8c0-3 2-5.2 4.4-5.2h3.5c2.4 0 4.5 2.2 4.5 5.2zm46.5 3.3v-10c0-4.5-3.7-8.1-8.1-8.1h-11.1v-12.2h17.8v-6.3h-20.6c-4.4 0-8.1 3.6-8.1 8.1v8.8c0 4.5 3.7 8.1 8.1 8.1h11v13.3h-17.7v6.4h20.6c4.4 0 8.1-3.7 8.1-8.1z"/>
		<path class="s0" d="m243.3 82.2c-0.4-0.4-0.6-1.3-0.8-2.1-0.2-0.9-0.4-1.9-1.1-2.5q-0.2-0.2-0.5-0.3-0.2-0.1-0.4-0.2c1-3 0.6-5.9-0.4-8.6-1.2-3.3-3.4-6.2-5.1-8.1-1.8-2.4-3.6-4.6-3.6-7.9 0-5 0.5-14.3-8.3-14.3-11.1 0-8.3 11.3-8.4 14.8-0.2 2.5-0.7 4.5-2.5 7-2.1 2.4-5 6.4-6.3 10.5-0.7 2-1 4-0.7 5.8-0.7 0.7-1.2 1.6-1.8 2.2-0.5 0.5-1.1 0.7-1.9 0.9-0.7 0.3-1.5 0.7-2 1.6-0.2 0.4-0.3 0.9-0.3 1.4 0 0.4 0.1 0.8 0.1 1.3 0.2 0.8 0.3 1.7 0.1 2.2-0.5 1.6-0.6 2.7-0.2 3.5 0.4 0.8 1.2 1.1 2.2 1.3 1.9 0.4 4.4 0.3 6.4 1.4 2.2 1.1 4.4 1.5 6.1 1.1 1.3-0.3 2.3-1 2.9-2.2 1.3 0 2.8-0.6 5.2-0.7 1.6-0.1 3.7 0.6 6 0.4q0.1 0.4 0.3 0.8c0.9 1.8 2.6 2.6 4.4 2.5 1.8-0.2 3.7-1.2 5.2-3.1 1.5-1.7 4-2.5 5.6-3.5 0.8-0.5 1.4-1.1 1.5-2 0-0.8-0.5-1.8-1.7-3.2zm-27.3-29.1c0.7-0.5 1.5-1.1 1.5-1.2 0.6-0.4 1.5-1.5 3.1-1.5 0.8 0 1.7 0.3 2.8 1 0.7 0.4 1.2 0.5 2.5 1 0.9 0.4 1.5 1 1.1 2-0.3 0.7-1.2 1.5-2.5 1.9-1.2 0.4-2.1 1.8-4.1 1.7q-0.6-0.1-1.1-0.3c-0.8-0.3-1.3-1.1-2.1-1.6-1-0.5-1.5-1.1-1.6-1.7q-0.3-0.8 0.4-1.3zm5.6-1.4c0.1 0 0.2 0.1 0.3 0.1 0.2 0 0.3 0 0.4-0.1 0-0.2-0.3-0.3-0.4-0.3-0.2-0.1-0.4-0.1-0.6-0.1 0 0.1-0.1 0.1-0.1 0.2 0.1 0.1 0.3 0.1 0.4 0.2zm0.3-4c1.1-2.4 3.8-2.3 4.8 0 0.7 1.5 0.4 3.4-0.4 4.4-0.2-0.1-0.7-0.3-1.4-0.5 0.1-0.2 0.3-0.3 0.4-0.5 0.5-1.3 0-3-1-3-0.8-0.1-1.5 1.2-1.3 2.5-0.4-0.2-1-0.4-1.4-0.5-0.1-0.7 0-1.6 0.3-2.4zm-4.4-1.2c1.1 0 2.3 1.5 2.1 3.6-0.4 0.1-0.8 0.3-1.1 0.5 0.1-0.9-0.4-2.2-1.1-2.1-0.9 0.1-1.1 2.3-0.2 3.1 0.1 0 0.2-0.1-0.6 0.6-1.7-1.6-1.2-5.7 0.9-5.7zm1.7 5.3c0.2 0 0.2-0.1 0.4-0.1 0.1-0.1 0.3-0.1 0.3-0.2 0.1-0.1 0-0.1 0-0.1-0.2-0.1-0.4-0.1-0.6 0-0.2 0-0.4 0.1-0.4 0.3 0 0.1 0.2 0.2 0.3 0.1zm-2.8 37.7c-0.3 3.8-4.8 3.7-8.2 1.9-3.3-1.7-7.5-0.7-8.4-2.3-0.2-0.6-0.2-1.4 0.3-2.9 0.3-0.9 0.1-1.8 0-2.7-0.2-0.8-0.2-1.6 0.1-2.1 0.3-0.8 0.9-1 1.6-1.3 1.1-0.4 1.2-0.3 2.1-1 0.6-0.7 1-1.4 1.6-2 0.5-0.6 1-0.9 1.9-0.8 0.9 0.2 1.6 0.8 2.4 1.8l2.1 3.9c1 2.1 4.7 5.2 4.5 7.5zm-0.2-2.8c-0.4-0.8-1-1.5-1.5-2.2 0.7 0 1.5-0.2 1.8-1 0.2-0.6 0-1.6-0.8-2.7-1.5-1.9-4.2-3.5-4.2-3.5-1.5-0.9-2.3-2-2.7-3.3-0.4-1.2-0.3-2.5 0-3.8 0.5-2.5 2-4.9 2.9-6.4 0.3-0.2 0.1 0.3-0.9 2.2-0.9 1.8-2.7 5.8-0.3 9 0.1-2.3 0.6-4.6 1.5-6.7 1.3-3 4.1-8.2 4.3-12.3 0.1 0.1 0.5 0.4 0.7 0.5 0.5 0.3 0.9 0.7 1.3 1.1 1.4 1.1 3.1 1 4.7 0.1 0.6-0.4 1.2-0.8 1.7-1 1.1-0.3 1.9-0.9 2.4-1.6 0.9 3.3 2.8 8.1 4.1 10.4 0.6 1.3 2 3.9 2.5 7.1q0.6 0 1.2 0.1c1.5-3.9-1.2-8.1-2.5-9.2-0.5-0.5-0.5-0.7-0.3-0.7 1.4 1.2 3.2 3.6 3.8 6.4 0.4 1.3 0.4 2.6 0.1 3.9 1.8 0.7 3.9 1.9 3.3 3.8-0.2 0-0.3 0-0.4 0 0.3-1.1-0.4-1.9-2.5-2.9-2.1-0.9-3.9-0.9-4.2 1.4-1.3 0.4-2 1.6-2.3 3-0.3 1.2-0.4 2.7-0.5 4.3 0 0.8-0.4 2-0.7 3.2-3.5 2.5-8.4 3.6-12.5 0.8zm28.1-1.3c-0.1 1.8-4.5 2.2-6.9 5.1-1.5 1.7-3.2 2.6-4.8 2.7-1.5 0.2-2.9-0.5-3.6-2.1-0.6-1.2-0.3-2.5 0.1-3.9 0.4-1.6 1-3.1 1.1-4.4 0-1.7 0.1-3.1 0.4-4.3 0.3-1.1 0.7-1.8 1.5-2.2q0.1-0.1 0.1-0.1c0.1 1.4 0.8 2.9 2.1 3.2 1.3 0.4 3.3-0.8 4.1-1.8 1 0 1.8-0.1 2.5 0.6 1.1 0.9 0.8 3.3 1.9 4.5 1.1 1.3 1.5 2.1 1.5 2.7zm-27.9-31c0.3 0.2 0.5 0.5 0.9 0.8 0.7 0.6 1.7 1.1 3 1.1 1.2 0 2.4-0.6 3.4-1.1 0.6-0.3 1.2-0.8 1.7-1.2 0.4-0.3 0.6-0.6 0.3-0.7-0.3 0-0.3 0.3-0.7 0.6-0.4 0.3-1 0.8-1.5 1-0.8 0.5-2.1 1.2-3.2 1.2-1.2 0-2.1-0.6-2.7-1.1-0.4-0.3-0.7-0.5-0.9-0.8-0.1-0.1-0.2-0.5-0.4-0.5-0.2 0-0.2 0.4 0.1 0.7z"/>
		<path id="Shape 1" fill-rule="evenodd" class="s0" d="m245 95v3h-241v-3z"/>
	</g>
</svg>